<?xml version="1.0" encoding="utf-8"?>
<!-- Generator: Adobe Illustrator 16.0.0, SVG Export Plug-In . SVG Version: 6.00 Build 0)  -->
<!DOCTYPE svg PUBLIC "-//W3C//DTD SVG 1.1//EN" "http://www.w3.org/Graphics/SVG/1.1/DTD/svg11.dtd">
<svg version="1.1" id="Layer_1" xmlns="http://www.w3.org/2000/svg" xmlns:xlink="http://www.w3.org/1999/xlink" x="0px" y="0px"
	 width="524px" height="138px" viewBox="0 0 524 138" enable-background="new 0 0 524 138" xml:space="preserve">
<g>
	<g>
		<g>
			<path fill="#FFFFFF" d="M159.968,63.624c-5.378-2.337-9.235-4.442-9.235-7.951c0-2.451,2.22-4.792,6.897-4.792
				c4.207,0,7.831,1.054,11.572,2.69c1.054,0.468,2.688,0.584,3.507-1.054l1.872-3.739c0.701-1.404,0.117-3.041-1.169-3.977
				c-2.69-1.751-8.301-3.974-15.781-3.974c-13.092,0-17.887,7.95-17.887,14.729c0,8.885,6.314,13.327,14.613,17.066
				c7.48,3.394,11.572,5.729,11.572,9.353c0,3.039-2.57,5.262-7.131,5.262c-6.429,0-10.285-2.223-13.441-3.975
				c-1.404-0.818-2.924-0.469-3.509,0.701l-2.456,5.027c-0.583,1.168,0.118,2.221,0.937,2.805c3.038,2.104,9.235,5.494,17.769,5.494
				c12.04,0,19.288-7.365,19.288-15.782C177.386,71.456,169.904,67.832,159.968,63.624z"/>
			<path fill="#FFFFFF" d="M228.694,41.996h-3.156c-1.286,0-1.636,0.819-1.989,1.872l-1.401,3.39
				c-0.936-0.936-7.015-6.43-17.068-6.43c-14.846,0-25.485,12.743-25.485,28.174c0,15.781,11.34,28.289,26.07,28.289
				c7.013,0,12.858-3.273,13.794-3.855v27.82c0,1.639,1.284,2.571,2.688,2.571h6.546c1.402,0,2.57-1.17,2.57-2.571V44.569
				C231.264,43.283,230.096,41.996,228.694,41.996z M219.575,81.859c0,0-5.376,4.326-12.508,4.326
				c-8.767,0-15.781-7.951-15.781-17.185c0-9.119,6.079-17.067,15.313-17.067c7.833,0,12.508,7.247,12.977,8.885L219.575,81.859
				L219.575,81.859z"/>
			<path fill="#FFFFFF" d="M284.188,41.996h-5.963c-1.986,0-3.039,0.353-3.039,2.573V77.3c-0.469,2.455-4.791,8.888-12.627,8.888
				c-6.896,0-10.521-3.978-10.521-12.861V44.569c0-1.286-1.168-2.573-2.572-2.573h-6.547c-1.287,0-2.572,1.287-2.572,2.573v27.938
				c0,14.144,3.974,24.783,20.108,24.783c10.988,0,15.898-6.197,17.066-7.365l1.404,3.859c0.465,1.286,1.051,2.22,2.452,2.22h2.81
				c1.399,0,2.687-1.169,2.687-2.57V44.569C286.875,43.283,285.589,41.996,284.188,41.996z"/>
			<path fill="#FFFFFF" d="M310.277,22.591c0,4.327-3.506,7.834-7.948,7.834c-4.324,0-7.716-3.507-7.716-7.834
				c0-4.442,3.392-7.948,7.716-7.948C306.771,14.643,310.277,18.148,310.277,22.591z M305.603,41.996h-6.547
				c-1.401,0-2.569,1.287-2.569,2.573v48.865c0,1.401,1.168,2.57,2.569,2.57h6.547c1.287,0,2.572-1.169,2.572-2.57V44.569
				C308.175,43.283,306.89,41.996,305.603,41.996z"/>
			<path fill="#FFFFFF" d="M363.222,41.996h-3.155c-1.286,0-1.638,0.819-1.986,1.872l-1.403,3.39
				c-0.934-0.936-7.013-6.43-17.064-6.43c-14.85,0-25.484,12.743-25.484,28.174c0,15.781,11.338,28.289,26.066,28.289
				c7.016,0,12.857-3.273,13.795-3.855v2.92c0,10.988-6.313,14.498-13.443,14.498c-6.195,0-10.754-3.51-12.626-5.027
				c-1.402-1.053-2.921-0.586-3.624,0.818l-2.806,5.143c-0.467,0.816-0.352,2.455,0.585,3.04c2.338,2.338,9.703,6.78,18.705,6.78
				c14.145,0,25.017-8.418,25.017-25.252V44.569C365.795,43.283,364.626,41.996,363.222,41.996z M354.104,81.859
				c0,0-5.378,4.326-12.508,4.326c-8.77,0-15.78-7.951-15.78-17.185c0-9.119,6.077-17.067,15.313-17.067
				c7.248,0,11.923,5.611,12.978,7.599v22.326H354.104z"/>
			<path fill="#FFFFFF" d="M421.474,41.996h-3.154c-1.287,0-1.638,0.819-1.988,1.872l-1.403,3.39
				c-0.936-0.936-7.015-6.43-17.066-6.43c-14.847,0-25.484,12.743-25.484,28.174c0,15.781,11.34,28.289,26.07,28.289
				c7.013,0,12.857-3.273,13.794-3.855v2.92c0,10.988-6.313,14.498-13.444,14.498c-6.196,0-10.756-3.51-12.625-5.027
				c-1.404-1.053-2.924-0.586-3.625,0.818l-2.805,5.143c-0.467,0.816-0.352,2.455,0.583,3.04c2.341,2.338,9.704,6.78,18.704,6.78
				c14.146,0,25.017-8.418,25.017-25.252V44.569C424.044,43.283,422.876,41.996,421.474,41.996z M412.354,81.859
				c0,0-5.376,4.326-12.508,4.326c-8.767,0-15.78-7.951-15.78-17.185c0-9.119,6.077-17.067,15.313-17.067
				c7.247,0,11.925,5.611,12.976,7.599V81.859z"/>
			<path fill="#FFFFFF" d="M456.72,14.176h-6.546c-1.405,0-2.573,1.285-2.573,2.572v76.688c0,1.4,1.168,2.569,2.573,2.569h6.546
				c1.284,0,2.569-1.169,2.569-2.569V16.748C459.289,15.461,458.004,14.176,456.72,14.176z"/>
			<path fill="#FFFFFF" d="M513.462,41.996h-7.247c-1.287,0-2.338,0.235-2.807,1.521l-15.197,37.057h-0.232L475.47,43.517
				c-0.352-0.935-1.52-1.521-2.337-1.521h-7.716c-2.105,0-3.041,1.637-2.338,3.509l18.588,48.631l-10.872,26.065
				c-0.936,1.873,0.352,3.626,2.338,3.626h7.479c1.055,0,1.754-0.818,2.223-1.638L515.8,45.505
				C516.617,43.633,515.684,41.996,513.462,41.996z"/>
			
				<linearGradient id="SVGID_1_" gradientUnits="userSpaceOnUse" x1="477.7285" y1="-107.1763" x2="477.7285" y2="-122.9585" gradientTransform="matrix(1 0 0 -1 -41.6602 -25.96)">
				<stop  offset="0" style="stop-color:#7AD64E"/>
				<stop  offset="0.0316" style="stop-color:#79D44D"/>
				<stop  offset="0.3899" style="stop-color:#6BBC44"/>
				<stop  offset="0.7219" style="stop-color:#63AD3F"/>
				<stop  offset="1" style="stop-color:#60A83D"/>
			</linearGradient>
			<path fill="url(#SVGID_1_)" d="M435.954,81.216c-4.325,0-7.716,3.507-7.716,7.949c0,4.324,3.391,7.833,7.716,7.833
				c4.44,0,7.947-3.509,7.947-7.833C443.901,84.723,440.396,81.216,435.954,81.216z"/>
			<g>
				
					<linearGradient id="SVGID_2_" gradientUnits="userSpaceOnUse" x1="116.3394" y1="-60.2266" x2="116.3394" y2="-129.6909" gradientTransform="matrix(1 0 0 -1 -41.6602 -25.96)">
					<stop  offset="0" style="stop-color:#7AD64E"/>
					<stop  offset="0.0316" style="stop-color:#79D44D"/>
					<stop  offset="0.3899" style="stop-color:#6BBC44"/>
					<stop  offset="0.7219" style="stop-color:#63AD3F"/>
					<stop  offset="1" style="stop-color:#60A83D"/>
				</linearGradient>
				<path fill="url(#SVGID_2_)" d="M103.684,66.461L74.568,49.649l-25.966-14.99c-0.908-0.523-2.024-0.523-2.93,0
					c-0.905,0.521-1.465,1.488-1.465,2.535V100.8c0,1.034,0.548,1.983,1.433,2.513c0.012,0.006,0.02,0.019,0.032,0.024
					c0.452,0.261,0.959,0.394,1.465,0.394c0.506,0,1.011-0.133,1.465-0.394l55.082-31.804c0.907-0.523,1.466-1.49,1.466-2.535
					C105.149,67.951,104.59,66.983,103.684,66.461z M65.373,82.82c-0.413,0.316-0.9,0.472-1.386,0.472
					c-0.682,0-1.36-0.308-1.808-0.894c-0.989-1.289-2.223-2.319-3.613-3.065c-1.194-0.644-2.503-1.08-3.888-1.265
					c-1.248-0.161-2.126-1.307-1.963-2.555c0.166-1.248,1.312-2.125,2.558-1.962c1.943,0.257,3.778,0.868,5.454,1.771
					c1.948,1.049,3.678,2.493,5.065,4.303C66.56,80.625,66.372,82.057,65.373,82.82z M73.81,77.84
					c-0.413,0.318-0.902,0.471-1.386,0.471c-0.683,0-1.359-0.307-1.807-0.891c-2.07-2.697-4.659-4.844-7.576-6.387
					c-2.418-1.28-5.058-2.152-7.852-2.521c-1.247-0.163-2.127-1.308-1.962-2.556c0.164-1.246,1.305-2.128,2.555-1.963
					c3.353,0.442,6.531,1.47,9.431,3.01c3.477,1.845,6.551,4.425,9.018,7.642C74.998,75.645,74.808,77.075,73.81,77.84z
					 M82.702,72.816c-0.414,0.317-0.902,0.472-1.387,0.472c-0.684,0-1.36-0.308-1.809-0.892c-3.23-4.208-7.264-7.577-11.832-9.962
					c-3.679-1.921-7.704-3.204-11.94-3.761c-1.248-0.165-2.126-1.31-1.961-2.557c0.163-1.246,1.311-2.126,2.554-1.96
					c4.796,0.631,9.35,2.087,13.51,4.266c5.126,2.686,9.654,6.472,13.282,11.2C83.887,70.62,83.7,72.051,82.702,72.816z"/>
				
					<linearGradient id="SVGID_3_" gradientUnits="userSpaceOnUse" x1="107.8354" y1="-37.8091" x2="107.8354" y2="-152.1108" gradientTransform="matrix(1 0 0 -1 -41.6602 -25.96)">
					<stop  offset="0" style="stop-color:#7AD64E"/>
					<stop  offset="0.0316" style="stop-color:#79D44D"/>
					<stop  offset="0.3899" style="stop-color:#6BBC44"/>
					<stop  offset="0.7219" style="stop-color:#63AD3F"/>
					<stop  offset="1" style="stop-color:#60A83D"/>
				</linearGradient>
				<path fill="url(#SVGID_3_)" d="M66.174,11.849c-31.562,0-57.15,25.589-57.15,57.152c0,31.562,25.588,57.149,57.15,57.149
					c11.947,0,23.035-3.672,32.207-9.94c15.058-10.292,24.945-27.595,24.945-47.209C123.326,37.438,97.736,11.849,66.174,11.849z
					 M90.835,108.665c-7.164,4.472-15.614,7.063-24.662,7.063c-25.763,0-46.729-20.965-46.729-46.729
					c0-25.766,20.965-46.73,46.729-46.73c25.764,0,46.731,20.965,46.731,46.73C112.905,85.717,104.073,100.405,90.835,108.665z"/>
			</g>
		</g>
	</g>
</g>
</svg>
